<svg xmlns="http://www.w3.org/2000/svg" viewBox="0 0 128 128" role="img" aria-label="Pixel Love classic heart logo">
  <rect width="128" height="128" rx="28" fill="#fff7fb"/>
  <rect x="24" y="36" width="16" height="16" fill="#ffb8d2"/>
  <rect x="40" y="28" width="16" height="16" fill="#ff5fae"/>
  <rect x="56" y="28" width="16" height="16" fill="#ff5fae"/>
  <rect x="72" y="36" width="16" height="16" fill="#ff2f93"/>
  <rect x="88" y="44" width="16" height="16" fill="#ff2f93"/>
  <rect x="24" y="52" width="16" height="16" fill="#ff8d9e"/>
  <rect x="40" y="52" width="16" height="16" fill="#ff5fae"/>
  <rect x="56" y="52" width="16" height="16" fill="#ff5fae"/>
  <rect x="72" y="52" width="16" height="16" fill="#ff2f93"/>
  <rect x="88" y="60" width="16" height="16" fill="#ff2f93"/>
  <rect x="32" y="68" width="16" height="16" fill="#ff5fae"/>
  <rect x="48" y="68" width="16" height="16" fill="#ff5fae"/>
  <rect x="64" y="68" width="16" height="16" fill="#ff2f93"/>
  <rect x="80" y="76" width="16" height="16" fill="#ff2f93"/>
  <rect x="48" y="84" width="16" height="16" fill="#ff5fae"/>
  <rect x="64" y="92" width="16" height="16" fill="#ff2f93"/>
  <rect x="32" y="28" width="8" height="8" fill="#ffffff"/>
  <rect x="40" y="36" width="8" height="8" fill="#ffffff"/>
  <rect x="18" y="24" width="6" height="6" fill="#ff5fae"/>
  <rect x="24" y="18" width="6" height="6" fill="#ffb8d2"/>
  <rect x="104" y="82" width="6" height="6" fill="#ff5fae"/>
  <rect x="98" y="88" width="6" height="6" fill="#ffb8d2"/>
</svg>
